<?xml version="1.0" encoding="utf-8"?>
<!-- Generator: Adobe Illustrator 16.0.0, SVG Export Plug-In . SVG Version: 6.00 Build 0)  -->
<!DOCTYPE svg PUBLIC "-//W3C//DTD SVG 1.1//EN" "http://www.w3.org/Graphics/SVG/1.1/DTD/svg11.dtd">
<svg version="1.1" id="Layer_1" xmlns="http://www.w3.org/2000/svg" xmlns:xlink="http://www.w3.org/1999/xlink" x="0px" y="0px"
	 width="30px" height="30px" viewBox="0 0 30 30" enable-background="new 0 0 30 30" xml:space="preserve">
<path fill="#9B9B9A" d="M25.67,13.037l-9.825-7.353c-0.503-0.377-1.195-0.377-1.699,0l-3.974,2.974V7.94
	c0-0.782-0.635-1.418-1.417-1.418H7.444c-0.783,0-1.418,0.636-1.418,1.418v3.82l-1.803,1.35c-0.489,0.365-0.688,1.003-0.496,1.583
	c0.193,0.579,0.735,0.97,1.346,0.97h0.953v7.518c0,0.783,0.635,1.418,1.418,1.418h15.102c0.783,0,1.418-0.635,1.418-1.418v-7.518
	h0.963c0.783,0,1.418-0.635,1.418-1.418C26.345,13.734,26.075,13.287,25.67,13.037L25.67,13.037z M18.601,17.973
	c0,1.617-1.098,2.601-2.728,2.804v0.649c0,0.482-0.391,0.874-0.874,0.874c-0.483,0-0.875-0.392-0.875-0.874v-0.723
	c-0.828-0.155-1.635-0.478-2.346-0.986c-0.223-0.158-0.38-0.446-0.38-0.762c0-0.524,0.419-0.931,0.944-0.931
	c0.262,0,0.445,0.092,0.577,0.184c0.697,0.511,1.456,0.826,2.349,0.826c0.827,0,1.325-0.328,1.325-0.866v-0.027
	c0-0.51-0.314-0.771-1.85-1.166c-1.849-0.473-3.043-0.984-3.043-2.809V14.14c0-1.421,0.978-2.424,2.425-2.69v-0.685
	c0-0.482,0.392-0.875,0.875-0.875c0.483,0,0.874,0.392,0.874,0.875v0.69c0.72,0.118,1.375,0.362,1.953,0.73
	c0.225,0.129,0.447,0.406,0.447,0.8c0,0.524-0.42,0.932-0.944,0.932c-0.198,0-0.354-0.053-0.511-0.146
	c-0.67-0.393-1.299-0.616-1.931-0.616c-0.773,0-1.18,0.354-1.18,0.8v0.027c0,0.604,0.394,0.8,1.981,1.207
	c1.862,0.485,2.912,1.155,2.912,2.755L18.601,17.973L18.601,17.973z M18.601,17.973"/>
</svg>
