<?xml version="1.0" encoding="utf-8"?>
<!-- Generator: Adobe Illustrator 16.0.0, SVG Export Plug-In . SVG Version: 6.00 Build 0)  -->
<!DOCTYPE svg PUBLIC "-//W3C//DTD SVG 1.1//EN" "http://www.w3.org/Graphics/SVG/1.1/DTD/svg11.dtd">
<svg version="1.1" id="Layer_1" xmlns="http://www.w3.org/2000/svg" xmlns:xlink="http://www.w3.org/1999/xlink" x="0px" y="0px"
	 width="30px" height="30px" viewBox="0 0 30 30" enable-background="new 0 0 30 30" xml:space="preserve">
<path fill="#9B9B9A" d="M19.619,4.022h-9.238c-0.883,0-1.598,0.719-1.598,1.598V24.38c0,0.883,0.715,1.598,1.598,1.598h9.238
	c0.883,0,1.598-0.715,1.598-1.598V5.621C21.217,4.742,20.502,4.022,19.619,4.022L19.619,4.022z M11.804,4.841h6.39
	c0.165,0,0.296,0.241,0.296,0.537c0,0.302-0.131,0.543-0.296,0.543h-6.39c-0.166,0-0.292-0.241-0.292-0.543
	C11.513,5.082,11.639,4.841,11.804,4.841L11.804,4.841z M15.004,24.866c-0.822,0-1.495-0.667-1.495-1.485
	c0-0.824,0.673-1.491,1.495-1.491c0.815,0,1.482,0.667,1.482,1.491C16.486,24.199,15.819,24.866,15.004,24.866L15.004,24.866z
	 M20.018,20.901H9.982V6.723h10.035V20.901z M20.018,20.901"/>
</svg>
