<?xml version="1.0" encoding="utf-8"?>
<!-- Generator: Adobe Illustrator 16.0.0, SVG Export Plug-In . SVG Version: 6.00 Build 0)  -->
<!DOCTYPE svg PUBLIC "-//W3C//DTD SVG 1.1//EN" "http://www.w3.org/Graphics/SVG/1.1/DTD/svg11.dtd">
<svg version="1.1" id="Layer_1" xmlns="http://www.w3.org/2000/svg" xmlns:xlink="http://www.w3.org/1999/xlink" x="0px" y="0px"
	 width="30px" height="30px" viewBox="0 0 30 30" enable-background="new 0 0 30 30" xml:space="preserve">
<g>
	<path fill="#9B9B9A" d="M11.184,14.878c-3.155,1.908-4.257,2.494-4.257,3.694c0,0.685,0.514,1.736,2.056,1.736
		c1.541,0,2.397-0.636,2.936-2.177l3.449,0.954c-0.734,2.935-3.204,4.819-6.557,4.819c-3.89,0-6.165-2.202-6.165-5.064
		c0-2.937,2.275-4.086,4.6-5.407v-1.736h3.938V14.878z M11.184,10.278H7.245V6.438h3.938V10.278z"/>
	<path fill="#9B9B9A" d="M18.816,15.122c3.155-1.908,4.257-2.495,4.257-3.694c0-0.685-0.514-1.737-2.056-1.737
		c-1.541,0-2.397,0.637-2.936,2.178l-3.449-0.954c0.734-2.936,3.204-4.819,6.557-4.819c3.89,0,6.165,2.202,6.165,5.063
		c0,2.937-2.275,4.086-4.6,5.407v1.737h-3.938V15.122z M18.816,19.721h3.938v3.841h-3.938V19.721z"/>
</g>
</svg>
