<?xml version="1.0" encoding="utf-8"?>
<!-- Generator: Adobe Illustrator 16.0.0, SVG Export Plug-In . SVG Version: 6.00 Build 0)  -->
<!DOCTYPE svg PUBLIC "-//W3C//DTD SVG 1.1//EN" "http://www.w3.org/Graphics/SVG/1.1/DTD/svg11.dtd">
<svg version="1.1" id="Layer_1" xmlns="http://www.w3.org/2000/svg" xmlns:xlink="http://www.w3.org/1999/xlink" x="0px" y="0px"
	 width="30px" height="30px" viewBox="0 0 30 30" enable-background="new 0 0 30 30" xml:space="preserve">
<path fill="#9B9B9A" d="M15.032,16.108h0.004c0.188,0,0.373-0.055,0.521-0.153l0.041-0.026c0.009-0.006,0.018-0.011,0.028-0.018
	l0.472-0.392L27.38,6.211c-0.021-0.032-0.062-0.054-0.106-0.054H2.726c-0.029,0-0.058,0.01-0.082,0.029l11.805,9.728
	C14.597,16.037,14.809,16.108,15.032,16.108L15.032,16.108z M2.595,8.569v13.8l8.455-6.831L2.595,8.569z M18.961,15.586l8.444,6.787
	V8.614L18.961,15.586z M16.275,17.801c-0.338,0.275-0.777,0.429-1.241,0.429c-0.463,0-0.902-0.15-1.238-0.427l-1.938-1.597
	l-9.264,7.481v0.023c0,0.071,0.06,0.132,0.134,0.132h24.548c0.068,0,0.129-0.061,0.129-0.132v-0.021l-9.255-7.436L16.275,17.801z
	 M16.275,17.801"/>
</svg>
