<?xml version="1.0" encoding="utf-8"?>
<!-- Generator: Adobe Illustrator 16.0.0, SVG Export Plug-In . SVG Version: 6.00 Build 0)  -->
<!DOCTYPE svg PUBLIC "-//W3C//DTD SVG 1.1//EN" "http://www.w3.org/Graphics/SVG/1.1/DTD/svg11.dtd">
<svg version="1.1" id="Layer_1" xmlns="http://www.w3.org/2000/svg" xmlns:xlink="http://www.w3.org/1999/xlink" x="0px" y="0px"
	 width="30px" height="30px" viewBox="0 0 30 30" enable-background="new 0 0 30 30" xml:space="preserve">
<path fill="#9B9B9A" d="M15.017,3.376h-0.033c-4.015,0-7.281,3.265-7.281,7.277c0,2.632,1.198,6.104,3.561,10.319
	c1.751,3.127,3.528,5.521,3.546,5.545c0.049,0.068,0.127,0.105,0.21,0.105c0.002,0,0.005,0,0.007,0
	c0.085-0.002,0.164-0.045,0.211-0.117c0.018-0.025,1.781-2.689,3.521-5.947c2.349-4.396,3.54-7.729,3.54-9.905
	C22.297,6.641,19.031,3.376,15.017,3.376L15.017,3.376z M19.252,10.833c0,2.344-1.908,4.252-4.253,4.252
	c-2.344,0-4.252-1.908-4.252-4.252c0-2.346,1.908-4.252,4.252-4.252C17.345,6.581,19.252,8.486,19.252,10.833L19.252,10.833z
	 M18.377,10.833"/>
</svg>
