<?xml version="1.0" encoding="utf-8"?>
<!-- Generator: Adobe Illustrator 16.0.0, SVG Export Plug-In . SVG Version: 6.00 Build 0)  -->
<!DOCTYPE svg PUBLIC "-//W3C//DTD SVG 1.1//EN" "http://www.w3.org/Graphics/SVG/1.1/DTD/svg11.dtd">
<svg version="1.1" id="Layer_1" xmlns="http://www.w3.org/2000/svg" xmlns:xlink="http://www.w3.org/1999/xlink" x="0px" y="0px"
	 width="30px" height="30px" viewBox="0 0 30 30" enable-background="new 0 0 30 30" xml:space="preserve">
<g>
	<g>
		<path fill="#9B9B9A" d="M18.089,24.034c-0.795-0.728-1.219-1.678-1.404-2.648c-0.186-0.973-0.429-2.481-0.59-3.52
			c-0.173-1.122-0.583-2.138-0.953-2.606c-0.822-1.038-1.499-1.469-2.453-1.921c-0.689-0.328-1.979-0.49-2.751-0.508
			c-0.893-0.021-2.517,0.04-3.609,0.173c-0.003-0.01-0.213-0.482-0.216-0.489c3.263-1.109,6.189-2.123,7.509-2.513
			c5.083-1.499,8.429-2.3,10.167-2.759c0.893-0.236,2.146-0.607,2.522-0.856c0.134-0.088,0.202-0.176,0.143-0.264
			c-0.058-0.083-0.202-0.137-0.34-0.145c-0.384-0.022-1.272-0.005-1.776,0.002c-1.119,0.015-2.111,0.088-3.043,0.162
			c-1.627,0.13-3.264,0.398-3.504,0.435c-0.642,0.096-2.785,0.514-3.619,0.748c-0.653,0.184-2.629,0.669-4.541,1.379
			c-1.578,0.583-3.02,1.167-4.403,1.874C4,11.17,2.773,11.845,2.066,12.27c-0.021-0.045-0.074-0.247-0.079-0.264
			c0.504-0.337,1.288-0.85,2.412-1.502c0.717-0.417,1.594-0.873,2.13-1.145c1.001-0.507,3.086-1.463,5.112-2.143
			c1.331-0.453,2.83-0.888,4.24-1.204c0.646-0.145,1.93-0.421,3.331-0.615c0.976-0.135,2.018-0.247,3.063-0.323
			c0.948-0.068,1.955-0.095,2.833-0.104c1.973-0.02,2.242,0.145,2.534,0.269c0.527,0.225,0.454,0.919,0.021,1.385
			c-0.294,0.316-0.771,0.574-1.222,0.759c-1.031,0.422-3.644,1.075-4.756,1.374c-2.441,0.656-4.855,1.193-6.244,1.599
			c-1.24,0.363-4.942,1.374-5.78,1.628c-0.01,0.003-0.058,0.017-0.078,0.027l0.004,0.018c0.01-0.001,0.07-0.01,0.132-0.014
			c0.423-0.022,0.728-0.032,0.728-0.032c0.849-0.016,1.551,0.048,2.331,0.318c0.85,0.295,1.465,0.708,2.119,1.303
			c0.384,0.347,0.888,1.021,1.167,1.562c0.847,1.508,0.985,4.169,1.129,5.034c0.16,0.964,0.253,1.381,0.547,2.185
			c0.161,0.445,0.577,1.008,1.232,1.527c0.291,0.228,0.67,0.374,0.905,0.432c0.494,0.119,1.001,0.118,1.393,0.021
			c0.518-0.124,0.918-0.354,1.225-0.627l0.002,0.079c-0.176,0.312-0.463,0.614-0.872,0.865c-0.406,0.249-0.904,0.333-1.016,0.337
			c-0.113,0.003-0.455,0.036-0.719-0.029C19.512,24.894,18.798,24.683,18.089,24.034"/>
	</g>
</g>
</svg>
