<?xml version="1.0" encoding="utf-8"?>
<!-- Generator: Adobe Illustrator 16.0.0, SVG Export Plug-In . SVG Version: 6.00 Build 0)  -->
<!DOCTYPE svg PUBLIC "-//W3C//DTD SVG 1.1//EN" "http://www.w3.org/Graphics/SVG/1.1/DTD/svg11.dtd">
<svg version="1.1" id="Layer_1" xmlns="http://www.w3.org/2000/svg" xmlns:xlink="http://www.w3.org/1999/xlink" x="0px" y="0px"
	 width="30px" height="30px" viewBox="0 0 30 30" enable-background="new 0 0 30 30" xml:space="preserve">
<g>
	<g>
		<path fill="#9B9B9A" d="M13.828,21.257c-0.551-0.504-0.845-1.162-0.973-1.834c-0.129-0.674-0.297-1.719-0.408-2.438
			c-0.12-0.777-0.404-1.481-0.66-1.805c-0.569-0.719-1.038-1.018-1.699-1.331c-0.478-0.227-1.37-0.339-1.905-0.352
			c-0.618-0.015-1.743,0.027-2.5,0.12c-0.002-0.007-0.147-0.334-0.149-0.339c2.26-0.769,4.287-1.471,5.201-1.74
			c3.521-1.038,5.838-1.593,7.041-1.911c0.618-0.164,1.486-0.42,1.747-0.593c0.093-0.061,0.14-0.122,0.099-0.183
			c-0.04-0.058-0.14-0.095-0.235-0.1c-0.266-0.016-0.881-0.003-1.23,0.001c-0.774,0.01-1.462,0.062-2.107,0.112
			c-1.127,0.09-2.261,0.275-2.427,0.301c-0.444,0.067-1.929,0.356-2.507,0.518c-0.452,0.127-1.821,0.463-3.145,0.955
			c-1.093,0.404-2.092,0.808-3.05,1.297c-0.85,0.41-1.699,0.878-2.189,1.172c-0.015-0.031-0.051-0.171-0.055-0.183
			c0.349-0.233,0.892-0.589,1.67-1.04c0.497-0.289,1.104-0.604,1.476-0.793c0.693-0.351,2.138-1.013,3.541-1.484
			c0.922-0.314,1.96-0.615,2.937-0.834c0.447-0.1,1.337-0.292,2.307-0.426c0.676-0.093,1.397-0.171,2.122-0.224
			c0.656-0.047,1.354-0.065,1.962-0.072c1.366-0.014,1.553,0.1,1.755,0.186c0.365,0.156,0.314,0.637,0.015,0.959
			c-0.204,0.219-0.534,0.397-0.847,0.526c-0.714,0.292-2.523,0.744-3.294,0.951c-1.69,0.454-3.362,0.826-4.324,1.107
			c-0.858,0.252-3.423,0.951-4.003,1.128c-0.007,0.002-0.04,0.012-0.054,0.019l0.003,0.013c0.007-0.001,0.049-0.007,0.092-0.01
			c0.293-0.016,0.504-0.022,0.504-0.022c0.588-0.011,1.074,0.033,1.614,0.221c0.589,0.204,1.015,0.49,1.468,0.902
			c0.266,0.24,0.614,0.707,0.808,1.082c0.587,1.044,0.683,2.887,0.782,3.487c0.11,0.667,0.176,0.956,0.379,1.513
			c0.111,0.309,0.399,0.698,0.854,1.058c0.201,0.158,0.464,0.26,0.627,0.299c0.342,0.083,0.693,0.082,0.965,0.015
			c0.358-0.086,0.636-0.246,0.849-0.435l0.001,0.056c-0.122,0.215-0.32,0.425-0.604,0.599c-0.281,0.172-0.626,0.23-0.703,0.233
			c-0.078,0.002-0.315,0.025-0.498-0.021C14.813,21.853,14.319,21.706,13.828,21.257"/>
		<path fill="#9B9B9A" d="M15.377,16.888c-0.06-0.278-0.216-0.438-0.467-0.478c0.201-0.072,0.351-0.17,0.451-0.294
			c0.101-0.123,0.15-0.274,0.15-0.449c0-0.216-0.069-0.382-0.21-0.498c-0.14-0.117-0.322-0.176-0.548-0.176h-0.997v2.776h0.646
			v-1.143h0.06c0.089,0,0.155,0.03,0.198,0.09s0.074,0.154,0.093,0.284l0.104,0.769h0.708L15.377,16.888z M14.776,16.038
			c-0.054,0.06-0.131,0.09-0.231,0.09h-0.142v-0.594h0.171c0.095,0,0.165,0.023,0.212,0.069c0.046,0.047,0.069,0.116,0.069,0.209
			C14.855,15.904,14.828,15.979,14.776,16.038z"/>
		<path fill="#9B9B9A" d="M16.909,14.994h-0.643l-0.726,2.776h0.663l0.102-0.552h0.531l0.099,0.552h0.705L16.909,14.994z
			 M16.396,16.721l0.179-0.968l0.174,0.968H16.396z"/>
		<path fill="#9B9B9A" d="M17.748,14.994h0.658l0.316,0.88c0.095,0.26,0.167,0.488,0.217,0.678h0.034l-0.017-0.47v-1.088h0.621
			v2.776h-0.656l-0.316-0.88c-0.095-0.261-0.167-0.488-0.217-0.681h-0.036l0.016,0.47v1.091h-0.62V14.994z"/>
		<path fill="#9B9B9A" d="M19.874,14.994h0.709l0.387,1.062l0.389-1.062h0.71v2.776h-0.632V16.73c0-0.263,0.01-0.529,0.031-0.799
			H21.42c-0.027,0.133-0.083,0.318-0.164,0.553l-0.286,0.81l-0.281-0.81c-0.083-0.236-0.138-0.42-0.166-0.553h-0.05
			c0.023,0.25,0.034,0.517,0.034,0.799v1.039h-0.633V14.994z"/>
		<path fill="#9B9B9A" d="M23.559,14.994h-0.644l-0.726,2.776h0.663l0.102-0.552h0.532l0.099,0.552h0.704L23.559,14.994z
			 M23.046,16.721l0.178-0.968l0.174,0.968H23.046z"/>
		<path fill="#9B9B9A" d="M24.396,14.994h0.658l0.317,0.88c0.093,0.26,0.166,0.488,0.216,0.678h0.034l-0.016-0.47v-1.088h0.62v2.776
			H25.57l-0.316-0.88c-0.094-0.261-0.166-0.488-0.217-0.681h-0.036l0.016,0.47v1.091h-0.62V14.994z"/>
	</g>
	<path fill="#9B9B9A" d="M26.902,16.93c-0.232,0-0.421,0.189-0.421,0.422c0,0.233,0.188,0.422,0.421,0.422
		c0.233,0,0.422-0.188,0.422-0.422C27.324,17.119,27.136,16.93,26.902,16.93z M26.902,17.696c-0.189,0-0.344-0.154-0.344-0.345
		c0-0.189,0.154-0.344,0.344-0.344c0.19,0,0.345,0.154,0.345,0.344C27.247,17.542,27.093,17.696,26.902,17.696z"/>
	<g>
		<path fill="#9B9B9A" d="M26.724,17.594v-0.468h0.208c0.042,0,0.073,0.005,0.095,0.013c0.021,0.009,0.039,0.023,0.053,0.045
			c0.013,0.021,0.02,0.045,0.02,0.07c0,0.033-0.012,0.062-0.033,0.084s-0.054,0.037-0.1,0.043c0.017,0.009,0.029,0.016,0.038,0.023
			c0.018,0.017,0.035,0.038,0.052,0.062l0.081,0.127h-0.078l-0.062-0.097c-0.019-0.028-0.033-0.05-0.045-0.064
			s-0.022-0.025-0.031-0.031c-0.01-0.006-0.02-0.011-0.028-0.013c-0.008-0.002-0.019-0.002-0.035-0.002h-0.071v0.207H26.724z
			 M26.786,17.333h0.133c0.028,0,0.051-0.003,0.066-0.009c0.017-0.006,0.028-0.016,0.037-0.028c0.008-0.013,0.012-0.027,0.012-0.042
			c0-0.022-0.008-0.04-0.024-0.055c-0.016-0.014-0.041-0.021-0.075-0.021h-0.148V17.333z"/>
	</g>
</g>
</svg>
