<?xml version="1.0" encoding="utf-8"?>
<!-- Generator: Adobe Illustrator 16.0.0, SVG Export Plug-In . SVG Version: 6.00 Build 0)  -->
<!DOCTYPE svg PUBLIC "-//W3C//DTD SVG 1.1//EN" "http://www.w3.org/Graphics/SVG/1.1/DTD/svg11.dtd">
<svg version="1.1" id="Layer_1" xmlns="http://www.w3.org/2000/svg" xmlns:xlink="http://www.w3.org/1999/xlink" x="0px" y="0px"
	 width="30px" height="30px" viewBox="0 0 30 30" enable-background="new 0 0 30 30" xml:space="preserve">
<path fill="#9B9B9A" d="M24.395,20.436c0.039,0.305-0.053,0.57-0.279,0.797l-2.648,2.627c-0.12,0.133-0.275,0.246-0.468,0.339
	c-0.192,0.093-0.381,0.153-0.567,0.179c-0.013,0-0.053,0.004-0.12,0.011s-0.152,0.01-0.258,0.01c-0.252,0-0.661-0.043-1.225-0.129
	c-0.564-0.087-1.254-0.299-2.07-0.638c-0.816-0.338-1.743-0.846-2.778-1.523c-1.035-0.677-2.137-1.605-3.305-2.787
	c-0.93-0.916-1.699-1.793-2.31-2.629c-0.611-0.836-1.102-1.609-1.474-2.318c-0.372-0.711-0.651-1.354-0.836-1.932
	c-0.186-0.578-0.312-1.075-0.378-1.493c-0.066-0.418-0.093-0.747-0.08-0.985c0.014-0.239,0.02-0.372,0.02-0.398
	c0.027-0.186,0.086-0.375,0.179-0.567c0.093-0.192,0.206-0.349,0.338-0.468l2.648-2.648c0.186-0.186,0.398-0.278,0.637-0.278
	c0.172,0,0.325,0.05,0.458,0.149s0.246,0.222,0.338,0.368l2.131,4.042c0.119,0.212,0.152,0.444,0.099,0.696
	s-0.166,0.465-0.338,0.638l-0.976,0.975c-0.026,0.027-0.05,0.07-0.07,0.13c-0.02,0.06-0.03,0.109-0.03,0.149
	c0.053,0.279,0.173,0.598,0.358,0.955c0.16,0.319,0.405,0.707,0.737,1.166c0.332,0.457,0.803,0.984,1.414,1.582
	c0.597,0.611,1.128,1.086,1.592,1.424c0.465,0.338,0.853,0.588,1.165,0.746c0.312,0.16,0.551,0.256,0.717,0.289l0.249,0.049
	c0.026,0,0.07-0.01,0.129-0.029c0.06-0.02,0.103-0.043,0.13-0.069l1.134-1.155c0.24-0.212,0.518-0.318,0.836-0.318
	c0.226,0,0.405,0.041,0.538,0.119h0.021l3.842,2.27C24.176,19.951,24.342,20.17,24.395,20.436L24.395,20.436z M24.395,20.436"/>
</svg>
