<?xml version="1.0" encoding="utf-8"?>
<!-- Generator: Adobe Illustrator 16.0.0, SVG Export Plug-In . SVG Version: 6.00 Build 0)  -->
<!DOCTYPE svg PUBLIC "-//W3C//DTD SVG 1.1//EN" "http://www.w3.org/Graphics/SVG/1.1/DTD/svg11.dtd">
<svg version="1.1" id="Layer_1" xmlns="http://www.w3.org/2000/svg" xmlns:xlink="http://www.w3.org/1999/xlink" x="0px" y="0px"
	 width="30px" height="30px" viewBox="0 0 30 30" enable-background="new 0 0 30 30" xml:space="preserve">
<path fill="#9B9B9A" d="M11.107,11.151c0.487,2.285,2.178,4.235,3.903,4.235s3.326-1.951,3.813-4.235
	c0.048-0.135,0.249-0.29,0.401-0.864c0.17-0.574,0.213-1.163,0.054-1.301l-0.034-0.038c-0.229-0.21-0.211-0.198-0.211-0.198
	s0.399-2.019,0.079-2.973c-0.504-1.525-3.512-2.546-4.116-2.666c0-0.001-0.367-0.075-0.39-0.075c0,0-0.475-0.095-1.024,0.144
	c-0.359,0.138-2.232,0.987-2.764,2.597c-0.32,0.954,0.08,2.973,0.08,2.973s0.018-0.012-0.212,0.198l-0.034,0.038
	c-0.155,0.176-0.117,0.727,0.053,1.301C10.859,10.861,11.06,11.016,11.107,11.151z M21.592,16.893
	c-1.302-0.426-2.233-0.896-2.867-1.279c-1.043,1.101-2.34,1.773-3.699,1.773s-2.678-0.68-3.743-1.78
	c-0.633,0.383-1.57,0.858-2.88,1.286c-4.076,1.522-2.852,7.72-2.853,7.768c0.128,0.689,0.203,0.928,0.268,0.954
	c4.094,1.823,14.266,1.823,18.359,0c0.065-0.026,0.14-0.265,0.269-0.954C24.444,24.612,25.684,18.439,21.592,16.893z"/>
</svg>
